<svg xmlns="http://www.w3.org/2000/svg" viewBox="0 0 240 240" width="240" height="240" role="img" aria-label="TyX">
  <defs>
    <linearGradient id="bg" x1="0%" y1="0%" x2="100%" y2="100%">
      <stop offset="0%" stop-color="#7c3256"></stop>
      <stop offset="100%" stop-color="#b15781"></stop>
    </linearGradient>
    <clipPath id="round">
      <rect width="240" height="240" rx="20" ry="20"></rect>
    </clipPath>
    
    <symbol id="sparkle" viewBox="-6 -6 12 12" overflow="visible">
      <path d="M0 -6 Q0.8 -0.8 6 0 Q0.8 0.8 0 6 Q-0.8 0.8 -6 0 Q-0.8 -0.8 0 -6 Z" fill="#ffeef7"></path>
    </symbol>
  </defs>

  <g clip-path="url(#round)">
    
    <rect width="240" height="240" fill="url(#bg)"></rect>

    
    <g fill="#ffffff">
      <circle cx="28.8" cy="43.2" r="1.3"></circle>
      <circle cx="57.6" cy="105.6" r="1.1"></circle>
      <circle cx="91.2" cy="24" r="1.5"></circle>
      <circle cx="158.4" cy="33.6" r="1.3"></circle>
      <circle cx="196.8" cy="52.8" r="1.1"></circle>
      <circle cx="220.8" cy="110.4" r="1.2"></circle>
      <circle cx="43.2" cy="220.8" r="1.2"></circle>
      <circle cx="19.2" cy="187.2" r="1.1"></circle>
      <circle cx="211.2" cy="211.2" r="1.3"></circle>
      <circle cx="14.4" cy="129.6" r="1.0"></circle>
      <circle cx="230.4" cy="28.8" r="1.2"></circle>
      <circle cx="225.6" cy="172.8" r="1.1"></circle>
    </g>

    
    <use href="#sparkle" x="33.6" y="28.8" width="10" height="10"></use>
    <use href="#sparkle" x="211.2" y="43.2" width="14" height="14"></use>
    <use href="#sparkle" x="24" y="196.8" width="12" height="12"></use>
    <use href="#sparkle" x="216" y="206.4" width="9" height="9"></use>

    
    <g transform="translate(56 28) scale(1.067)">
      
      <ellipse cx="60" cy="58" rx="38" ry="44" fill="#ffeef7"></ellipse>
      
      <ellipse cx="60" cy="74" rx="22" ry="26" fill="#ffffff"></ellipse>
      
      <path d="M30 26 L38 12 L46 30 Z" fill="#b15781"></path>
      <path d="M74 30 L82 12 L90 26 Z" fill="#b15781"></path>
      
      <path d="M24 58 Q20 40 34 30 Q36 52 40 70 Q30 72 24 58 Z" fill="#b15781" fill-opacity="0.85"></path>
      <path d="M96 58 Q100 40 86 30 Q84 52 80 70 Q90 72 96 58 Z" fill="#b15781" fill-opacity="0.85"></path>
      
      <circle cx="46" cy="48" r="12" fill="#ffffff" stroke="#212529" stroke-width="2"></circle>
      <circle cx="74" cy="48" r="12" fill="#ffffff" stroke="#212529" stroke-width="2"></circle>
      <line x1="58" y1="48" x2="62" y2="48" stroke="#212529" stroke-width="2"></line>
      
      <circle cx="46" cy="48" r="3.5" fill="#212529"></circle>
      <circle cx="74" cy="48" r="3.5" fill="#212529"></circle>
      <circle cx="47.2" cy="46.8" r="1.1" fill="#ffffff"></circle>
      <circle cx="75.2" cy="46.8" r="1.1" fill="#ffffff"></circle>
      
      <path d="M54 60 L60 70 L66 60 Z" fill="#7c3256"></path>
      
      <g stroke="#7c3256" stroke-width="2" stroke-linecap="round">
        <line x1="50" y1="100" x2="46" y2="106"></line>
        <line x1="50" y1="100" x2="50" y2="107"></line>
        <line x1="50" y1="100" x2="54" y2="106"></line>
        <line x1="70" y1="100" x2="66" y2="106"></line>
        <line x1="70" y1="100" x2="70" y2="107"></line>
        <line x1="70" y1="100" x2="74" y2="106"></line>
      </g>
      
      <g stroke="#e0bbcc" stroke-width="1" fill="none" opacity="0.6">
        <path d="M52 72 Q60 76 68 72"></path>
        <path d="M50 80 Q60 85 70 80"></path>
        <path d="M52 88 Q60 92 68 88"></path>
      </g>
    </g>

    
    <g font-family="Georgia, &#39;Times New Roman&#39;, serif" font-weight="700" font-size="52">
      <text x="120" y="212" text-anchor="middle" letter-spacing="-1">
        <tspan fill="#ffeef7">T</tspan><tspan fill="#f4dde8" font-style="italic" dy="6">y</tspan><tspan fill="#ffeef7" dy="-6">X</tspan>
      </text>
    </g>
  </g>
</svg>