<svg width="512" height="512" viewBox="0 0 512 512" fill="none" xmlns="http://www.w3.org/2000/svg">
    <path d="M182.111 374.222C181.463 373.315 180.361 371.889 178.806 369.944C177.25 368.13 176.472 367.222 176.472 367.222C180.62 361.259 184.12 355.62 186.972 350.306C189.954 344.991 192.481 338.963 194.556 332.222C196.63 325.481 198.444 317.12 200 307.139C201.556 297.157 203.046 284.648 204.472 269.611C205.898 254.574 207.454 235.972 209.139 213.806H199.222C191.056 213.806 184.185 214.583 178.611 216.139C173.167 217.565 166.815 220.87 159.556 226.056L155.083 219.056C162.602 209.981 169.926 202.398 177.056 196.306C184.315 190.213 192.028 187.167 200.194 187.167H323.278C328.722 187.167 333.778 186.907 338.444 186.389C343.111 185.87 347.454 184.185 351.472 181.333L356.917 186.972C350.176 196.176 343.37 203.306 336.5 208.361C329.63 213.417 323.148 215.944 317.056 215.944H304.417C303.38 226.315 302.667 236.944 302.278 247.833C301.889 258.593 301.694 269.028 301.694 279.139C301.694 302.731 303.056 319.778 305.778 330.278C308.5 340.778 312.843 346.028 318.806 346.028C322.694 346.028 326.713 345.574 330.861 344.667C335.009 343.63 341.491 341.426 350.306 338.056L354.583 346.611C341.231 357.63 331.056 364.954 324.056 368.583C317.056 372.213 310.704 374.028 305 374.028C295.926 374.028 289.12 368.843 284.583 358.472C280.176 347.972 277.972 333.843 277.972 316.083C277.972 307.657 278.426 295.602 279.333 279.917C280.37 264.102 282.12 242.648 284.583 215.556C275.38 215.296 266.306 215.037 257.361 214.778C248.546 214.389 238.824 214.13 228.194 214C227.028 228.648 226.12 244.139 225.472 260.472C224.824 276.676 224.5 293.074 224.5 309.667C224.5 318.87 224.63 327.491 224.889 335.528C225.278 343.565 225.796 351.148 226.444 358.278C224.111 359.833 220.157 361.648 214.583 363.722C209.009 365.796 203.176 367.741 197.083 369.556C190.991 371.5 186 373.056 182.111 374.222Z" fill="white"/>
</svg>

